<svg xmlns="http://www.w3.org/2000/svg" width="1024" height="1024"><g fill="none" fill-rule="evenodd"><path fill="#F44336" fill-rule="nonzero" d="M947 904L76 467h871z"/><path fill="#2196F3" fill-rule="nonzero" d="M76 467h436v532z"/><path fill="#0F52EB" fill-rule="nonzero" d="M947 467H512v532z"/><path fill="#3F51B5" fill-rule="nonzero" d="M76 467h436v218z"/><path fill="#2B3DA0" fill-rule="nonzero" d="M76 467h436v68z"/><path fill="#1E248C" fill-rule="nonzero" d="M947 467H512v218z"/><path fill="#0F1461" fill-rule="nonzero" d="M947 467H512v68z"/><path fill="#F0B697" fill-rule="nonzero" d="M343 442l72 122h97V138H343z"/><path fill="#E88F61" fill-rule="nonzero" d="M681 442l-73 122h-96V138h169z"/><path fill="#000" fill-rule="nonzero" d="M583 310c0 13.255-10.745 24-24 24s-24-10.745-24-24 10.745-24 24-24 24 10.745 24 24zm-95 0c0 13.255-10.745 24-24 24s-24-10.745-24-24 10.745-24 24-24 24 10.745 24 24zm112.464-170.505C575.387 171 543.42 196.41 506.993 213.797a10.081 10.081 0 00-3.99 7.694c.013 14.78-6.809 28.746-18.501 37.872a38.584 38.584 0 01-16.687 6.372c-8.344 1.082-13.06-5.05-11.488-13.706 5.08 5.41 10.52 6.613 15.962 1.082a19.028 19.028 0 00-1.088-22.002c-1.451-1.322-5.08-.841-7.377 0a202.55 202.55 0 01-84.643 8.416 113.669 113.669 0 01-3.628 15.39 156.383 156.383 0 01-11.366 28.013c-7.014 11.061-17.17 10.46-24.184 0a94.112 94.112 0 01-14.632-48.091 474.11 474.11 0 01-1.088-52.42c2.275-24.723 12.985-47.928 30.351-65.765 26.692-30.413 60.03-54.349 97.461-69.973a227.094 227.094 0 01100.968-21.642A95.097 95.097 0 01597.2 37.06a52.065 52.065 0 0122.854 24.046 13.868 13.868 0 007.013 6.853c33.732 17.29 55.19 51.602 55.865 89.33.67 8.954-3.563 17.573-11.077 22.554a25.153 25.153 0 01-25.2 1.492 81.3 81.3 0 01-37.242-29.456c-3.144-3.487-5.804-7.695-8.948-12.384z"/><path fill="#25A8F5" d="M305 582l207 417V685z"/><path fill="#41C2FF" d="M160.996 510L512 685v76z"/><path fill="#1775EF" d="M512 887.996l-233.004-174L512 999z"/><path fill="#1C65FF" d="M512 685v313.996L719 582z"/><path fill="#0C3BE8" d="M512 887.996L745 714 512 999z"/><path fill="#4880FF" d="M511.996 761l.004-76 351-175z"/><path fill="#F44336" fill-rule="nonzero" d="M515.92 771L511 749.551 506.08 771h-35.64L448 664h38.88l3.6 20.596L494.92 664h31.8l4.68 21.083L535.12 664H574l-22.44 107z"/><path fill="#FFC107" fill-rule="nonzero" d="M564.754 674.244L545.8 762.756h-21.97l-12.072-50.406-12.072 50.406h-21.488l-18.953-88.512h21.247l10.14 55.47 12.072-55.47h18.107l12.072 55.47 10.14-55.47h21.73zM585.517 657H438l4.467 20.741 18.832 88.633L464.316 780h95.126l2.897-13.626 19.194-88.633L586 657h-.483z"/><path fill="#FFFDFC" d="M512 484l-.004-41H439c6.894 11.732 16.228 21.066 28 28 11.772 6.934 26.772 11.268 45 13z"/><path fill="#EDD2C4" d="M512 484v-41h73c-7.242 12.25-16.575 21.583-28 28-11.425 6.417-26.425 10.75-45 13z"/></g></svg>