<svg xmlns="http://www.w3.org/2000/svg" xmlns:xlink="http://www.w3.org/1999/xlink" width="18" height="18"><defs><path id="a" d="M10.09 15.59 11.5 17l5-5-5-5-1.41 1.41L12.67 11H3v2h9.67l-2.58 2.59zM19 3H5a2 2 0 0 0-2 2v4h2V5h14v14H5v-4H3v4a2 2 0 0 0 2 2h14c1.1 0 2-.9 2-2V5c0-1.1-.9-2-2-2z"/><path id="c" d="M0 0h50v50H0z"/></defs><g fill="none" fill-rule="evenodd" transform="translate(-3 -3)"><mask id="b" fill="#fff"><use xlink:href="#a"/></mask><g mask="url(#b)"><use xlink:href="#c" fill="#000" transform="translate(-13 -13)"/></g></g></svg>